<?xml version="1.0" encoding="UTF-8"?><svg id="Layer_1" xmlns="http://www.w3.org/2000/svg" xmlns:xlink="http://www.w3.org/1999/xlink" viewBox="0 0 500 500"><defs><style>.cls-1{fill:url(#New_Gradient_Swatch_14);}.cls-2{fill:#fff;}</style><linearGradient id="New_Gradient_Swatch_14" x1="10738.54" y1="-2815.42" x2="11238.54" y2="-2815.42" gradientTransform="translate(10010.87 6029.27) rotate(-135)" gradientUnits="userSpaceOnUse"><stop offset="0" stop-color="#1fd4b2"/><stop offset="1" stop-color="#8cff4a"/></linearGradient></defs><circle class="cls-1" cx="250" cy="250" r="250"/><path class="cls-2" d="M195.6,412.57c-41.25,.04-74.81-33.53-74.77-74.77,.04-41.6,35.37-74.63,76.96-74.63h31.97s0-26.33,0-26.33h-53.55c-6.43,0-11.65-5.22-11.65-11.65v-17.17c0-6.43,5.22-11.65,11.65-11.65h53.55v-31.97c0-41.6,33.03-76.93,74.63-76.96,41.25-.04,74.81,33.53,74.77,74.77-.04,41.6-35.37,74.63-76.96,74.63h-31.97s0,26.33,0,26.33h52.51c6.43,0,11.65,5.22,11.65,11.65v17.17c0,6.43-5.22,11.65-11.65,11.65h-52.51v31.97c0,41.6-33.03,76.93-74.63,76.96Zm-.07-108.94c-18.87,0-34.23,15.36-34.23,34.23s15.36,34.23,34.23,34.23,34.23-15.36,34.23-34.23v-34.23h-34.23Zm74.7-107.26h34.23c18.87,0,34.23-15.36,34.23-34.23s-15.36-34.23-34.23-34.23-34.23,15.36-34.23,34.23v34.23Z"/></svg>